<?xml version="1.0" encoding="UTF-8"?>
<svg id="Calque_1" data-name="Calque 1" xmlns="http://www.w3.org/2000/svg" viewBox="0 0 561.05 336.43">
  <defs>
    <style>
      .cls-1 {
        fill: #5d54a0;
      }

      .cls-1, .cls-2, .cls-3, .cls-4, .cls-5, .cls-6 {
        stroke-width: 0px;
      }

      .cls-2 {
        fill: #5ab031;
      }

      .cls-3 {
        fill: #14acdd;
      }

      .cls-4 {
        fill: #e7a5ca;
      }

      .cls-5 {
        fill: #e94d45;
      }

      .cls-6 {
        fill: #fcbd08;
      }
    </style>
  </defs>
  <path class="cls-1" d="M12.53,260.32c-4.91-6.65-8.62-14.61-10.59-24.09-2.13-10.3-2.3-22.51-1.5-34.92.8-12.52-.64-31.54,11.6-57.46,5.73-12.13,12.38-22.28,18.26-30.3,8.41-11.48,16.98-19.49,23.58-24.78,6.6-5.29,13.4-8.71,20.23-10.99,6.89-2.3,13.12-4.59,18.55-6.58,5.51-2.01,8.9-3.21,10.03-3.18,2.01.24,3.1,1.3,3.13,3.26.03,2.08-.93,4.81-3.04,8.01-1.01,1.53-2.56,3.29-4.7,5.3-2.01,1.89-3.97,3.44-5.91,4.59-3.81,2.26-6.01,2.17-5.69-.4.27-2.19-.36-3.45-1.74-4.01-1.33-.54-3.99-.36-7.74.31-1.32.22-1.98.32-3.28.52-1.29,1.77-1.91,2.66-3.13,4.46-4.4,6.39-11.97,16.74-19.85,32.14-7.88,15.4-14.78,33.33-17.19,53.85-.16,1.38-.22,2.07-.34,3.45,4.62.1,6.96.12,11.67.1,3.6,0,6.62-.02,9.1.17,2.39.18,3.92.25,4.46.56,1.96,1.42,2.77,4.42,2.38,8.74-.21,2.3-.65,3.99-1.27,5.11-.68,1.22-2.05,2.16-3.95,2.6-1.98.46-5.15,1.03-9.15,1.31-2.77.19-5.48.29-7.69.31-2.22.02-3.68.03-4.37-.12-.79-.24-1.19-.35-1.97-.59-.27,2.75-.42,4.15-.73,7-.21,2.01-.44,5.04-.62,8.73-.18,3.69-.35,7.39-.33,11.07-.06,19.1,3.09,32.26,7.53,39.99.59,1.01,1.13,2,1.56,2.95.48,1.07.8,1.76.92,2.27.45,2.86-.73,4.62-3.56,5.44-2.83.81-6.25.23-10.03-1.61-4.55-2.21-9.73-6.62-14.61-13.21Z"/>
  <path class="cls-4" d="M138.34,143.02c1.72,13.78,2.03,29.84-2.08,44.85-4.11,15.01-13.43,29.74-26.69,42.06,1.16,9.21,3.98,16.97,8.43,23.41,4.42,6.4,9.64,8.43,15.32,5.18,8.73-5,13.17-4.5,13.1,2.13-.03,3.05-2.32,7.34-6.52,12.5-4.2,5.16-8.4,8.98-12.88,11.31-11.79,4.58-23.39.42-34.36-11.2-11.06-11.71-17.38-30.56-17.04-55.09.47-33.65,6.41-59.02,21.24-76.71,8.19-9.51,16.75-15.55,24.35-16.87,9.8-1.7,15.39,4.47,17.13,18.43ZM115.96,154.26c-2.09,4.1-3.75,8.31-4.78,12.63-.52,2.35-1.03,4.9-1.44,7.81-.44,3.1-.71,5.15-.86,7.01-.48,4.03-.73,8.47-.88,13.09-.15,4.61-.12,8.97.05,12.39.18,3.58.5,5.48,1.16,5.44.28-.01.87-.55,1.76-1.6.89-1.06,1.98-2.3,3.08-3.88,2.1-3,4.1-6.74,5.92-11.16,1.84-4.47,3.24-8.91,4.04-13.03.8-4.12.82-8.89.74-14.72s-.42-10.75-1.05-14.8c-.33-1.83-.76-3.26-1.19-4.48s-.82-1.88-1.07-2.03c-.15-.09-.26-.14-.46.09-1.25.8-2.94,3.21-5.01,7.25Z"/>
  <path class="cls-5" d="M212.89,128.65c2.55,15.2,3.34,32.57-.32,49.56-3.66,16.99-12.59,33.58-25.88,48.28,1.06,10.44,3.65,19.1,7.8,26.13,4.13,6.99,9.13,8.9,14.75,4.94,8.67-6.1,12.85-5.66,12.5,1.69-.16,3.38-2.53,8.23-6.88,14.32s-8.72,10.81-13.32,13.92c-11.96,6.4-23.21,2.91-33.5-9.66-10.38-12.67-15.82-33.92-15.6-62.82.23-29.93,1.63-63.25,18.82-89.41,7.55-10.71,15.69-17.27,23.14-18.36,9.69-1.41,15.9,5.98,18.49,21.39ZM191.48,140.16c-1.85,4.5-3.3,9.16-4.16,13.95-.42,2.6-.84,5.43-1.17,8.67-.35,3.44-.56,5.86-.66,8.04-.37,4.75-.51,9.95-.56,15.34-.05,5.37.04,10.41.24,14.35.21,4.13.54,6.28,1.2,6.22.28-.03.86-.66,1.74-1.9s1.95-2.7,3.02-4.54c2.05-3.49,3.97-7.8,5.68-12.91,1.73-5.15,3.01-10.25,3.68-15.01.67-4.76.59-10.19.3-16.59-.28-6.4-.84-11.83-1.7-16.32-.43-2.03-.94-3.62-1.44-4.99-.5-1.37-.94-2.12-1.19-2.29-.16-.11-.26-.16-.45.08-1.2.84-2.71,3.46-4.54,7.91Z"/>
  <path class="cls-6" d="M260.53,273.72c.11,6.52.13,11.17.02,13.68-.09,2.13-.33,4.05-.7,5.59-1.39,5.2-4.52,7.72-9.68,7.88-1.96.06-3.91-.41-5.26-1.35-1.69-1.17-3.65-3.82-5.55-7.18-5.05-8.57-8.03-26.23-8.36-54.03-.07-4.87-.04-11.39.07-19.14.12-7.75.38-17.39.51-28.83.09-4.42.11-6.62.09-10.96.25-23.97-1.25-37.51-.15-63.42.97-23.94,3.07-44.02,5.11-60.75,1.99-17.32,3.28-25.77,6.23-42.17.81-1.73,1.21-2.59,2.01-4.31,2.63-5.18,5.42-8.03,8.43-8.67.6-.13,2.09.04,4.14.28,2.06.24,4.39,4.01,5.26,10.27,4.1,29.28-.41,64.42-.62,96.14-.1,15.5.5,35.24,1.41,52.58,1.15,22.01.31,40.59-.2,54.04-.51,13.44-1.14,23.85-1.61,30.85-.83,12.14-1.26,22.02-1.13,29.53Z"/>
  <path class="cls-2" d="M305.13,273.83c.13,3.87.12,6.56-.02,8.1-.13,1.35-.41,2.52-.84,3.51-1.56,3.18-4.98,5.01-10.18,5.44-1.98.16-3.84,0-5.18-.54-1.56-.62-3.42-2.03-5.13-4.03-4.56-5.07-7.05-15.83-7.55-32.45-.09-3.04-.11-6.91,0-11.64.11-4.72.38-10.72.82-17.78.2-2.74.3-4.11.48-6.86,1.32-15.23,1.87-22.95,2.18-37.83.24-13.62-.56-25.25-1.18-36.18-.78-11.36-1.07-16.99-1.5-28.15.54-1.13.81-1.7,1.36-2.83,1.91-3.27,4.65-4.82,8.3-4.87.73-.01,2.07.12,3.68.59,1.67.49,4.02,3.27,7.1,7.59,4.05,5.68,7.7,21.64,10.42,41.67,2.75,20.22,2.67,36.64,1.93,47.75-.92,13.99-1.89,24.96-2.43,32.87-.54,7.9-1,14-1.41,18.22-.69,7.23-1,12.95-.85,17.4ZM279.59,80.05c-.87-1.85-1.62-4.6-2.05-8.07-.51-4.08-.61-9.53-.38-16.02.23-6.49.68-12,1.36-15.97.79-4.58,1.92-7.7,3.25-9.34,1.26-1.56,3.62-2.16,6.29-2.03,4.86.23,8.79,3.52,11,10.55,1.15,4.01,1.94,9.65,2.44,17.26.49,7.42.58,14.01-.27,18.65-.82,4.51-3.44,8.24-7.05,10.18-3.47,1.87-7.17,1.81-10.54-.43-1.87-1.24-3.18-2.94-4.03-4.76Z"/>
  <path class="cls-3" d="M400.75,212.65c-1.24,12.18-2.54,20.98-3.25,26.52-.68,5.35-1.23,10.3-1.55,14.93-.28,4.08-.55,7.12-.86,9.25-.28,1.95-.76,3.63-1.36,4.71-.62,1.12-1.63,2.46-2.89,3.73-1.47,1.47-4.12,2.66-7.1,3.38-3.05.74-6.04,1.06-7.76.34-1.59-.66-3.47-2.65-5.17-4.92-1.69-2.27-2.91-4.84-3.59-7.51-2.27-9.44-.08-31.68.94-66.83.68-23.56-2.4-39.36-5.95-50.11-3.5-10.59-5.97-10.52-7.41.16-1.47,10.88-.39,30.03-2.16,58.99-.93,15.29-2.22,26.31-2.85,33.01-.63,6.7-1.14,12.95-1.4,18.69-.24,5.15-.47,8.96-.71,11.42-.25,2.46-.68,4.42-1.24,5.74-.58,1.35-1.53,2.94-2.74,4.4-1.37,1.65-3.86,3.06-6.85,3.8-2.99.73-5.84.76-7.48-.23-1.6-.96-3.42-3.35-5.07-6.42-1.65-3.06-2.86-6.22-3.55-9.45-1.89-34.07,1.21-69.13.1-102.51-.88-26.5-2.61-50.12-1.74-63.48,16.05-4.06,25.84,3.21,29.02,21.38,3.03-12.9,8.58-19.12,16.77-19,8.17.12,14.6,3.75,18.95,10.42,4.28,6.57,8.61,16.94,12.37,30.52,3.82,13.79,7.88,36.15,4.54,69.09Z"/>
  <path class="cls-5" d="M464.92,121.83c1.02,1.07,1.52,1.6,2.53,2.66.61-1.48.9-2.21,1.48-3.66.42-1.01.91-2.02,1.41-2.67.55-.73.97-1.35,1.46-1.42,1.42-.37,3.29-.06,5.71.92s4.66,2.24,6.85,3.84c2.26,1.66,3.82,3.31,4.64,4.86.27.61.85,2.61,1.68,5.72.84,3.14,1.7,6.8,2.49,11.06,1.3,6.97,2.72,14.99,3.9,23.78,1.16,8.64,2.66,23.53.51,43.34-2.46,22.68-8.44,38.93-13.21,49.74-4.75,10.76-10.22,19.93-15.83,27.77-3.41,4.89-6.54,8.96-9.27,12.27-2.82,3.42-5.96,6.89-9.65,10.77-11.33,12.23-20.9,19.99-29.45,23.61-2.2.93-4.01,1.58-5.14,1.82-1.2.26-2.34.27-3.44-.03-3.37-.54-5.54-3.22-6.67-8.26-1.15-5.13-.84-9.93,1.55-13.45,1.04-1.38,2.46-2.7,4.07-3.88,1.63-1.2,3.24-2.09,4.7-2.58.65-.22,1.29.08,1.77.93.48.87,1.07,2.69,1.67,5.13.79,3.75,3.22,4.25,7.6,1.86s8.29-6.18,11.54-11.34c3.45-5.47,6.26-10.42,8.41-14.5,2.22-4.22,4.7-9.5,7.06-15.55,2.4-6.15,5.65-15.25,8.93-27.11,2.58-9.34,4.42-17.61,5.66-24.78,1.21-7,1.64-11.34,1.72-12.43.09-1.11.04-1.98-.04-2.12-.11-.19-.36.07-.86,1.06-.43.85-1.32,2.57-2.47,4.97-8.57,17.65-18.77,28.77-28.08,32.9-9.91,4.4-16.33,1.51-20.49-9.51-5.2-13.75-3.98-37.57-1.62-67.03.63-8.67,1.53-17.43,2.99-26.78,1.44-9.17,3.08-16.26,5.07-21.04,4.76-9.83,11.33-13.7,20.34-12.42,6.83.97,13.69,4.88,20.51,11.53ZM447.49,163.04c.04,4.89.22,11.72-.08,20.42-.3,8.7-1.02,17.14-1.94,24.98-.94,8.02-.71,11.65.84,11.57,1.6-.08,3.48-2.08,5.29-6.11,1.74-3.87,3.52-7.93,5.02-11.93,2.02-5.37,3.41-9.72,4.39-13.14.92-3.23,1.74-6.83,2.46-10.53.72-3.69,1.5-8.7,2.09-15.03.56-5.58.7-8.36.91-14.06.12-7.97-2.41-13.66-7.03-17-4.68-3.39-7.7-3.07-9.01,1.03-2.29,7.05-2.91,17.47-2.94,29.79Z"/>
  <path class="cls-2" d="M511.72,244.97c-.98-.34-1.8-.94-2.47-1.37-1.09-.93-1.92-2.38-2.29-4.27-.37-1.9-.26-3.66.42-4.97,1.34-2.37,3.71-4.15,6.89-5.16,3.27-1.04,6.49-1.14,9.71-.35,1.1.26,2.03.29,2.86.35.84.05,1.38.05,1.6-.12.48-.46,1.03-1.43,1.52-2.72.52-1.38.91-3.01,1.21-4.62.31-1.64.48-3.18.45-4.56-.11-2-.75-4.07-2.07-6.11-1.32-2.04-3.66-4.79-7.16-8.48-8.44-8.34-13.7-20.22-16.28-33.45-2.17-11.13-2.66-22.3-1.33-32.01,1.31-9.58,4.34-15.25,9.31-16.19,4.14-.78,9.64.62,15.4,3.24,5.79,2.63,11.27,6.27,16.28,10.76,2.36,2.16,4.39,4.22,6.12,6.43,1.62,2.07,3.35,4.78,5.05,7.9,1.86,3.42,2.71,5.61,2.51,6.53-.19.83-1.51,1.2-3.78.92-4.25-.54-7.24-2.8-9.03-6.8-.77-1.87-1.78-3.52-2.7-4.81-1-1.4-2.25-2.88-3.91-4.53-1.18-1.23-2.06-1.93-2.47-2.14-.49-.25-.95-.28-1.37,0-1.09,1.11-1.02,4.15-.26,8.91.78,4.92,2.18,10.54,3.86,16.4,1.35,4.7,2.72,8.9,4.52,12.21,1.76,3.24,4.77,7.17,8.41,11.52,3.4,4.05,5.6,7.34,6.76,10.02,1.19,2.75,1.74,5.78,1.53,9.04-.32,4.96-2.37,9.93-6.11,15.23-3.67,5.2-8.42,9.91-13.55,13.75-4.45,3.33-9.26,5.97-14.02,7.88-4.86,1.95-9,2.86-12.52,2.38-1.03-.16-2.09-.42-3.08-.77Z"/>
</svg>