<?xml version="1.0" encoding="UTF-8"?>
<svg id="Calque_1" data-name="Calque 1" xmlns="http://www.w3.org/2000/svg" version="1.1" xmlns:xlink="http://www.w3.org/1999/xlink" viewBox="0 0 590.5 590.5">
  <defs>
    <style>
      .cls-1 {
        display: none;
        fill: #fff;
      }

      .cls-1, .cls-2 {
        stroke-width: 0px;
      }

      .cls-3 {
        clip-path: url(#clippath-2);
      }

      .cls-4 {
        isolation: isolate;
      }

      .cls-2 {
        fill: none;
      }

      .cls-5 {
        clip-path: url(#clippath-1);
      }

      .cls-6 {
        clip-path: url(#clippath-4);
      }

      .cls-7 {
        clip-path: url(#clippath);
      }

      .cls-8 {
        clip-path: url(#clippath-3);
      }

      .cls-9 {
        clip-path: url(#clippath-5);
      }
    </style>
    <clipPath id="clippath">
      <rect class="cls-2" x="194.9" y="153" width="72.5" height="362.8" transform="translate(-1.7 1.2) rotate(-.3)"/>
    </clipPath>
    <clipPath id="clippath-1">
      <rect class="cls-2" x="194.2" y="149.8" width="73.7" height="369.1" transform="translate(-1.7 1.2) rotate(-.3)"/>
    </clipPath>
    <clipPath id="clippath-2">
      <rect class="cls-2" x="5" y="5" width="580.5" height="580.5"/>
    </clipPath>
    <clipPath id="clippath-3">
      <rect class="cls-2" width="590.5" height="590.5"/>
    </clipPath>
    <clipPath id="clippath-4">
      <rect class="cls-2" x="-222.1" y="604.8" width="36.9" height="93.9" rx="-74.1" ry="-74.1"/>
    </clipPath>
    <clipPath id="clippath-5">
      <rect class="cls-2" x="-222.4" y="604" width="37.6" height="95.5"/>
    </clipPath>
    <image id="image" width="1232" height="1231" xlink:href="FeelingSquareLogo-1.png"/>
  </defs>
  <g class="cls-7">
    <g class="cls-5">
      <image class="cls-4" width="1232" height="1230" transform="translate(850.2 -132.1)" xlink:href="FeelingSquareLogo-2.png"/>
    </g>
  </g>
  <g class="cls-3">
    <g class="cls-8">
      <use class="cls-4" transform="translate(-.3 0) scale(.5)" xlink:href="#image"/>
    </g>
  </g>
  <path class="cls-1" d="M209.8,507c-12.1-16.4-21.3-36.1-26.1-59.5-5.3-25.4-5.7-55.6-3.7-86.2,2-30.9-1.6-77.9,28.6-141.9,14.1-29.9,30.6-55,45.1-74.8,20.8-28.3,41.9-48.1,58.2-61.2,16.3-13.1,33.1-21.5,49.9-27.1,17-5.7,32.4-11.3,45.8-16.2,13.6-5,22-7.9,24.8-7.9,5,.6,7.7,3.2,7.7,8s-2.3,11.9-7.5,19.8c-2.5,3.8-6.3,8.1-11.6,13.1-5,4.7-9.8,8.5-14.6,11.3-9.4,5.6-14.8,5.3-14-1,.7-5.4-.9-8.5-4.3-9.9-3.3-1.3-9.9-.9-19.1.8-3.3.5-4.9.8-8.1,1.3-3.2,4.4-4.7,6.6-7.7,11-10.9,15.8-29.5,41.3-49,79.3s-36.5,82.3-42.4,133c-.4,3.4-.5,5.1-.8,8.5,11.4.3,17.2.3,28.8.2,8.9,0,16.4,0,22.5.4,5.9.5,9.7.6,11,1.4,4.8,3.5,6.8,10.9,5.9,21.6-.5,5.7-1.6,9.9-3.1,12.6-1.7,3-5.1,5.3-9.7,6.4-4.9,1.1-12.7,2.5-22.6,3.2-6.8.5-13.5.7-19,.8-5.5,0-9.1,0-10.8-.3-2-.6-2.9-.9-4.9-1.5-.7,6.8-1,10.3-1.8,17.3-.5,5-1.1,12.4-1.5,21.6-.4,9.1-.9,18.2-.8,27.3-.1,47.1,7.6,79.6,18.6,98.7,1.5,2.5,2.8,4.9,3.9,7.3,1.2,2.6,2,4.3,2.3,5.6,1.1,7.1-1.8,11.4-8.8,13.4s-15.4.6-24.8-4c-11.2-5.5-24-16.3-36.1-32.6h0l-.3.2Z"/>
  <g class="cls-6">
    <g class="cls-9">
      <use class="cls-4" transform="translate(-222.5 604) scale(0 0)" xlink:href="#image"/>
    </g>
  </g>
</svg>